<svg id="Layer_1" enable-background="new 0 0 512 512" height="512" viewBox="0 0 512 512" width="512" xmlns="http://www.w3.org/2000/svg"><g><path d="m480 200v272c0 17.67-14.33 32-32 32h-384c-17.67 0-32-14.33-32-32v-272c76.507 85.007 48.086 53.427 136.85 152.06 4.55 5.05 11.04 7.94 17.84 7.94h138.62c6.8 0 13.29-2.89 17.84-7.94 88.874-98.756 58.702-65.23 136.85-152.06z" fill="#f1cc76"/><path d="m440 244.444v227.556c0 17.67-14.33 32-32 32h40c17.67 0 32-14.33 32-32v-272z" fill="#ebb15d"/><path d="m480 200-64 71.11v-135.11z" fill="#aa7569"/><path d="m96 136v135.11l-64-71.11z" fill="#aa7569"/><path d="m56 176-24 24 64 71.11v-50.666z" fill="#9a6758"/><path d="m416 24v247.11c-24.025 26.696-48.318 53.689-72.85 80.95-4.55 5.05-11.04 7.94-17.84 7.94h-138.62c-6.8 0-13.29-2.89-17.84-7.94l-72.85-80.95v-247.11c0-8.84 7.16-16 16-16h288c8.84 0 16 7.16 16 16z" fill="#edebfd"/><path d="m400 8h-40c8.84 0 16 7.16 16 16v247.11l-53.63 59.593c-3.034 3.372-7.357 5.297-11.893 5.297h-99.787c-6.8 0-13.29-2.89-17.84-7.94-33.12-36.802-62.66-69.626-96.85-107.62v50.67l72.85 80.95c4.55 5.05 11.04 7.94 17.84 7.94h138.62c6.8 0 13.29-2.89 17.84-7.94l72.85-80.95v-247.11c0-8.837-7.164-16-16-16z" fill="#d2d2fc"/><path d="m487.995 199.906c-.022-1.829-.694-3.183-.634-3.04-.864-2.032 3.355 2.536-63.362-64.18v-108.686c0-13.234-10.767-24-24-24h-287.999c-13.234 0-24 10.766-24 24v108.686l-61.657 61.657c-1.521 1.52-2.343 3.563-2.343 5.657v272c0 22.056 17.944 40 40 40h384c22.056 0 40-17.944 40-40 0-1.159.002-271.613-.005-272.094zm-18.274 282.288-100.602-147.034 102.881-114.312v251.152c0 3.643-.82 7.098-2.279 10.194zm-.745-281.904-44.976 49.974v-94.95zm-356.976-184.29h288c4.411 0 8 3.589 8 8v244.041l-70.796 78.662c-3.029 3.366-7.364 5.297-11.893 5.297h-138.623c-4.528 0-8.863-1.931-11.893-5.297l-70.795-78.662c0-25.897 0-218.518 0-244.041 0-4.411 3.589-8 8-8zm-69.721 466.194c-1.459-3.096-2.279-6.551-2.279-10.194v-251.152l102.881 114.312zm45.721-326.88v94.95l-44.977-49.974zm-24 340.686c-3.706 0-7.218-.845-10.354-2.352.905-.907-6.318 9.501 100.249-146.25l9.008 10.009c6.06 6.732 14.729 10.593 23.785 10.593h138.623c9.057 0 17.726-3.861 23.785-10.593l9.008-10.009c106.559 155.74 99.345 145.345 100.249 146.251-3.135 1.506-6.647 2.351-10.353 2.351z"/><path d="m152 88h208c4.418 0 8-3.582 8-8s-3.582-8-8-8h-208c-4.418 0-8 3.582-8 8s3.582 8 8 8z"/><path d="m152 152h208c4.418 0 8-3.582 8-8s-3.582-8-8-8h-208c-4.418 0-8 3.582-8 8s3.582 8 8 8z"/><path d="m152 216h208c4.418 0 8-3.582 8-8s-3.582-8-8-8h-208c-4.418 0-8 3.582-8 8s3.582 8 8 8z"/><path d="m152 280h208c4.418 0 8-3.582 8-8s-3.582-8-8-8h-208c-4.418 0-8 3.582-8 8s3.582 8 8 8z"/></g></svg>