<svg id="Layer_1" height="512" viewBox="0 0 512 512" width="512" xmlns="http://www.w3.org/2000/svg" data-name="Layer 1"><path d="m132 78h249v334h-249z" fill="#53d8d8"/><path d="m132 78h30v334h-30z" fill="#46a5a2"/><path d="m219.93 180h-183.73a25.074 25.074 0 0 0 -25.2 25.04v99.26c.01 13.9 11.285 24.7 25.185 24.7h100.035c2.25 1 3.96 2.29 3.83 4.54-2.11 49.85 40.06 61.13 40.06 61.13s-16.32-65.67 28.08-65.67h11.74a24.718 24.718 0 0 0 25.07-24.75v-99.21a24.963 24.963 0 0 0 -25.07-25.04z" fill="#e87187"/><path d="m475.8 107h-183.73a24.92 24.92 0 0 0 -25.07 24.99v99.21a24.76 24.76 0 0 0 25.07 24.8h11.74c44.4 0 28.08 65.755 28.08 65.755s42.17-11.293 40.06-61.143a4.209 4.209 0 0 1 3.83-4.456c.07-.01.14-.156.21-.156h99.82a24.84 24.84 0 0 0 25.19-24.75v-99.26a25.031 25.031 0 0 0 -25.2-24.99z" fill="#f3ce7d"/><path d="m106.95 218.77v27.61a26.535 26.535 0 1 1 -53.07 0v-9.77h8.07a12.236 12.236 0 0 0 12.23-12.23 5.6 5.6 0 0 1 5.6-5.61z" fill="#ffd8b7"/><path d="m116.9 329.36v.08h-72.98v-21.53a23.853 23.853 0 0 1 23.85-23.85h25.29a23.85 23.85 0 0 1 23.84 23.85z" fill="#6994fe"/><path d="m458.12 145.73v27.6a26.535 26.535 0 1 1 -53.07 0v-9.77h8.07a12.238 12.238 0 0 0 12.24-12.23 5.6 5.6 0 0 1 5.6-5.6z" fill="#ffd8b7"/><path d="m468.08 256.31v.08h-72.98v-21.53a23.842 23.842 0 0 1 23.84-23.84h25.29a23.844 23.844 0 0 1 23.85 23.84z" fill="#4689d3"/><path d="m458.23 136.585a15.92 15.92 0 0 0 -11.27-4.738 22.883 22.883 0 0 1 -6.72-1.043 35.319 35.319 0 0 0 -8.65-1.737 26.556 26.556 0 0 0 -26.59 26.523v10.41h8.12a12.427 12.427 0 0 0 12.24-12.45 5.526 5.526 0 0 1 1.64-3.935 5.6 5.6 0 0 1 3.96-1.615h31.94a15.211 15.211 0 0 0 -4.67-11.415z" fill="#93453b"/><path d="m107.06 209.615a15.994 15.994 0 0 0 -11.28-4.728 23.266 23.266 0 0 1 -6.72-1.038 35.222 35.222 0 0 0 -8.65-1.735 26.414 26.414 0 0 0 -26.41 26.526v10.36h7.95a12.4 12.4 0 0 0 12.23-12.425 5.569 5.569 0 0 1 5.6-5.575h31.95a15.163 15.163 0 0 0 -4.67-11.385z" fill="#6d7486"/><path d="m380.98 66.74v11.89h-248.92v-11.89a49.786 49.786 0 0 1 49.78-49.79h149.35a49.788 49.788 0 0 1 49.79 49.79z" fill="#6d7486"/><path d="m380.98 410.66v34.6a49.788 49.788 0 0 1 -49.79 49.79h-149.35a49.786 49.786 0 0 1 -49.78-49.79v-34.6z" fill="#6d7486"/><path d="m211.84 17h-30a49.794 49.794 0 0 0 -49.84 49.74v12.26h30v-12.26a49.794 49.794 0 0 1 49.84-49.74z" fill="#4e5460"/><path d="m162 445.26v-34.26h-30v34.26a49.794 49.794 0 0 0 49.84 49.74h30a49.794 49.794 0 0 1 -49.84-49.74z" fill="#4e5460"/><g fill="#284268"><path d="m291.191 147h-2.191a6 6 0 0 0 0 12h2.192a6 6 0 0 0 0-12z"/><path d="m324.962 147h-11.893a6 6 0 0 0 0 12h11.893a6 6 0 0 0 0-12z"/><path d="m384.646 147h-37.452a6 6 0 0 0 0 12h37.452a6 6 0 0 0 0-12z"/><path d="m291.191 175h-2.191a6 6 0 0 0 0 12h2.192a6 6 0 0 0 0-12z"/><path d="m324.962 175h-11.893a6 6 0 0 0 0 12h11.893a6 6 0 0 0 0-12z"/><path d="m384.646 175h-37.452a6 6 0 1 0 0 12h37.452a6 6 0 0 0 0-12z"/><path d="m291.191 203h-2.191a6 6 0 0 0 0 12h2.192a6 6 0 0 0 0-12z"/><path d="m324.962 203h-11.893a6 6 0 1 0 0 12h11.893a6 6 0 0 0 0-12z"/><path d="m384.646 203h-37.452a6 6 0 1 0 0 12h37.452a6 6 0 0 0 0-12z"/><path d="m220.809 232h2.191a6 6 0 0 0 0-12h-2.192a6 6 0 1 0 0 12z"/><path d="m187.038 232h11.893a6 6 0 1 0 0-12h-11.893a6 6 0 0 0 0 12z"/><path d="m127.354 232h37.452a6 6 0 1 0 0-12h-37.452a6 6 0 1 0 0 12z"/><path d="m220.809 260h2.191a6 6 0 0 0 0-12h-2.192a6 6 0 1 0 0 12z"/><path d="m187.038 260h11.893a6 6 0 1 0 0-12h-11.893a6 6 0 0 0 0 12z"/><path d="m127.354 260h37.452a6 6 0 1 0 0-12h-37.452a6 6 0 1 0 0 12z"/><path d="m220.809 288h2.191a6 6 0 0 0 0-12h-2.192a6 6 0 1 0 0 12z"/><path d="m187.038 288h11.893a6 6 0 1 0 0-12h-11.893a6 6 0 0 0 0 12z"/><path d="m170.806 282a6 6 0 0 0 -6-6h-37.452a6 6 0 1 0 0 12h37.452a6 6 0 0 0 6-6z"/><path d="m233.493 451h46.05a6 6 0 0 0 0-12h-46.05a6 6 0 1 0 0 12z"/><path d="m154 89.2a6 6 0 0 0 -6 6v4.563a6 6 0 1 0 12 0v-4.563a6 6 0 0 0 -6-6z"/><path d="m154 110.738a6 6 0 0 0 -6 6v44.174a6 6 0 1 0 12 0v-44.174a6 6 0 0 0 -6-6z"/><path d="m475.808 101h-88.808v-34.264a55.826 55.826 0 0 0 -55.807-55.736h-149.35a55.857 55.857 0 0 0 -55.843 55.736v107.264h-89.806a31.1 31.1 0 0 0 -31.194 31.039v99.261a30.8 30.8 0 0 0 31.16 30.7h89.84v110.264a55.857 55.857 0 0 0 55.843 55.736h149.35a55.826 55.826 0 0 0 55.807-55.736v-183.264h88.833a30.837 30.837 0 0 0 31.167-30.8v-99.211a31.062 31.062 0 0 0 -31.192-30.989zm-337.808-34.264a43.843 43.843 0 0 1 43.843-43.736h149.35a43.812 43.812 0 0 1 43.807 43.736v6.264h-237zm-27 256.264h-61v-15.093a17.853 17.853 0 0 1 17.766-17.907h25.291a18 18 0 0 1 17.943 17.907zm-49.053-78a18.312 18.312 0 0 0 18.231-18h20.822v19.383a20.5 20.5 0 1 1 -41 0v-1.383zm-1.947-12v-4.361a20.506 20.506 0 0 1 20.474-20.539c.491 0 2.411.1 6.88 1.462a29.19 29.19 0 0 0 8.445 1.378c3.231 0 6.092 1.057 7.909 4.057h-23.925a11.684 11.684 0 0 0 -11.6 11.683 6.313 6.313 0 0 1 -6.236 6.32zm76.011 90h-13.011v-15.093a30.018 30.018 0 0 0 -29.943-29.907h-5.27c14.4-3 25.213-16.214 25.213-31.617v-19.733a5.724 5.724 0 0 0 4.753-5.876 21.98 21.98 0 0 0 -21.953-21.944 17.191 17.191 0 0 1 -4.983-.748 37.907 37.907 0 0 0 -10.34-1.982 32.522 32.522 0 0 0 -32.477 32.539v17.744c0 15.403 10.638 28.617 25.035 31.617h-5.269a29.866 29.866 0 0 0 -29.766 29.907v15.093h-1.825a18.843 18.843 0 0 1 -13.546-5.382 18.564 18.564 0 0 1 -5.629-13.369v-99.208a19.089 19.089 0 0 1 19.2-19.041h183.728a18.984 18.984 0 0 1 19.072 19.039v99.208a18.743 18.743 0 0 1 -19.072 18.753h-11.738c-11.968 0-21.285 4.374-27.691 12.57-10.768 13.774-10.031 35.894-8.28 49.288-10.976-6.339-27.435-20.852-26.181-50.855a9.951 9.951 0 0 0 -2.521-7.2 10.239 10.239 0 0 0 -6.918-3.58c-.182-.01-.365-.223-.588-.223zm238.989 122.264a43.812 43.812 0 0 1 -43.807 43.736h-149.35a43.843 43.843 0 0 1 -43.843-43.736v-28.264h237zm0-40.264h-237v-43.42a61.609 61.609 0 0 0 17.312 25.773 65.128 65.128 0 0 0 23.229 13.329 6.118 6.118 0 0 0 1.564.262 5.956 5.956 0 0 0 5.823-7.408c-2.373-9.541-6.278-37.4 4.025-50.583 4.072-5.209 10.037-7.953 18.237-7.953h11.738a30.754 30.754 0 0 0 31.072-30.751v-99.212a31 31 0 0 0 -31.072-31.037h-81.928v-89h237v16h-82.928a30.957 30.957 0 0 0 -31.072 30.989v99.211a30.8 30.8 0 0 0 31.072 30.8h11.738c8.193 0 14.155 2.722 18.227 7.923 10.28 13.13 6.4 40.923 4.035 50.481a6.09 6.09 0 0 0 1.622 5.782 6.041 6.041 0 0 0 5.765 1.545 66.1 66.1 0 0 0 23.229-13.408 61.786 61.786 0 0 0 18.312-28.823zm87-155h-61v-15.142a17.963 17.963 0 0 1 17.943-17.858h25.291a17.811 17.811 0 0 1 17.766 17.858zm-48.875-78a18.31 18.31 0 0 0 18.23-18h20.645v19.334a20.5 20.5 0 1 1 -41 0v-1.334zm-2.125-12v-4.41a20.582 20.582 0 0 1 20.562-20.536 26.737 26.737 0 0 1 6.924 1.462 29.337 29.337 0 0 0 8.468 1.4c3.232 0 6.114 1.081 7.933 4.081h-23.926a11.684 11.684 0 0 0 -11.6 11.683 6.312 6.312 0 0 1 -6.236 6.32zm84 71.241a18.6 18.6 0 0 1 -5.629 13.353 18.862 18.862 0 0 1 -13.545 5.406h-1.826v-15.142a29.825 29.825 0 0 0 -29.766-29.858h-5.267c14.4-3 25.033-16.264 25.033-31.666v-19.734a5.8 5.8 0 0 0 4.843-5.876 21.942 21.942 0 0 0 -21.913-21.944 17.017 17.017 0 0 1 -4.961-.749 38.376 38.376 0 0 0 -10.414-1.979 32.588 32.588 0 0 0 -32.555 32.538v17.744c0 15.4 10.814 28.666 25.211 31.666h-5.268a29.977 29.977 0 0 0 -29.943 29.858v15.142h-13.1c-.167 0-.335.2-.484.212a10.253 10.253 0 0 0 -9.458 10.748c1.266 30.275-15.2 44.774-26.192 51.026 1.758-13.384 2.523-35.648-8.269-49.453-6.397-8.196-15.719-12.533-27.687-12.533h-11.738a18.783 18.783 0 0 1 -19.072-18.8v-99.207a18.944 18.944 0 0 1 19.072-18.993h183.734a19.049 19.049 0 0 1 19.194 18.991z"/></g></svg>